<svg width="34" height="34" viewBox="0 0 34 34" fill="none" xmlns="http://www.w3.org/2000/svg">
<circle cx="16.6761" cy="16.6761" r="16.1761" stroke="#626262"/>
<g clip-path="url(#clip0_359_17)">
<path d="M26.5866 16.4733C26.5866 10.8284 22.0299 6.25342 16.4076 6.25342C10.7852 6.25342 6.22852 10.8284 6.22852 16.4733C6.22852 21.2639 9.51682 25.288 13.9503 26.3938V19.5952H11.8508V16.4733H13.9503V15.128C13.9503 11.6508 15.5169 10.038 18.9205 10.038C19.5647 10.038 20.678 10.1657 21.1353 10.2935V13.1199C20.8967 13.096 20.4792 13.08 19.9583 13.08C18.2883 13.08 17.6442 13.7147 17.6442 15.3635V16.4733H20.9683L20.3957 19.5952H17.6402V26.6174C22.682 26.0066 26.5866 21.699 26.5866 16.4733Z" fill="#626262"/>
</g>
<defs>
<clipPath id="clip0_359_17">
<rect width="20.3581" height="20.4398" fill="white" transform="translate(6.22852 6.25342)"/>
</clipPath>
</defs>
</svg>
