<svg width="17" height="17" viewBox="0 0 17 17" fill="none" xmlns="http://www.w3.org/2000/svg">
<path d="M17 8.56543C17 3.87186 13.196 0.0678711 8.50244 0.0678711C3.80887 0.0678711 0.00488281 3.87186 0.00488281 8.56543C0.00488281 12.5487 2.74999 15.8946 6.45108 16.814V11.1612H4.69846V8.56543H6.45108V7.44681C6.45108 4.55564 7.75891 3.21462 10.6003 3.21462C11.138 3.21462 12.0674 3.32084 12.4492 3.42706V5.77717C12.25 5.75725 11.9015 5.74397 11.4666 5.74397C10.0725 5.74397 9.53476 6.27175 9.53476 7.64265V8.56543H12.3097L11.8318 11.1612H9.53144V16.9999C13.7404 16.4921 17 12.9105 17 8.56543Z" fill="#626262"/>
</svg>
