<svg width="34" height="34" viewBox="0 0 34 34" fill="none" xmlns="http://www.w3.org/2000/svg">
<circle cx="17.0276" cy="16.6761" r="16.1761" stroke="#626262"/>
<path d="M16.6992 11.6715C14.1608 11.6715 12.1133 13.7276 12.1133 16.2768C12.1133 18.8259 14.1608 20.8821 16.6992 20.8821C19.2376 20.8821 21.285 18.8259 21.285 16.2768C21.285 13.7276 19.2376 11.6715 16.6992 11.6715ZM16.6992 19.2708C15.0588 19.2708 13.7178 17.9281 13.7178 16.2768C13.7178 14.6254 15.0548 13.2827 16.6992 13.2827C18.3435 13.2827 19.6806 14.6254 19.6806 16.2768C19.6806 17.9281 18.3395 19.2708 16.6992 19.2708ZM22.5423 11.4831C22.5423 12.0803 22.0633 12.5573 21.4726 12.5573C20.8779 12.5573 20.403 12.0763 20.403 11.4831C20.403 10.8899 20.8819 10.4089 21.4726 10.4089C22.0633 10.4089 22.5423 10.8899 22.5423 11.4831ZM25.5795 12.5733C25.5117 11.1344 25.1844 9.85983 24.1347 8.80971C23.089 7.75959 21.8199 7.43093 20.387 7.35878C18.9103 7.27461 14.4841 7.27461 13.0073 7.35878C11.5785 7.42692 10.3093 7.75558 9.25962 8.8057C8.20994 9.85582 7.88666 11.1304 7.81481 12.5693C7.731 14.0523 7.731 18.4973 7.81481 19.9802C7.88266 21.4191 8.20994 22.6937 9.25962 23.7438C10.3093 24.794 11.5745 25.1226 13.0073 25.1948C14.4841 25.2789 18.9103 25.2789 20.387 25.1948C21.8199 25.1266 23.089 24.798 24.1347 23.7438C25.1804 22.6937 25.5077 21.4191 25.5795 19.9802C25.6634 18.4973 25.6634 14.0563 25.5795 12.5733ZM23.6718 21.5715C23.3604 22.357 22.7578 22.9623 21.9715 23.2789C20.7941 23.7478 18.0003 23.6396 16.6992 23.6396C15.398 23.6396 12.6002 23.7438 11.4268 23.2789C10.6446 22.9663 10.0419 22.3611 9.72659 21.5715C9.25962 20.3891 9.36738 17.5834 9.36738 16.2768C9.36738 14.9701 9.26361 12.1605 9.72659 10.9821C10.0379 10.1965 10.6406 9.59129 11.4268 9.27465C12.6042 8.8057 15.398 8.91392 16.6992 8.91392C18.0003 8.91392 20.7981 8.80971 21.9715 9.27465C22.7538 9.58728 23.3565 10.1925 23.6718 10.9821C24.1387 12.1645 24.031 14.9701 24.031 16.2768C24.031 17.5834 24.1387 20.3931 23.6718 21.5715Z" fill="#626262"/>
</svg>
