<svg width="18" height="18" viewBox="0 0 18 18" fill="none" xmlns="http://www.w3.org/2000/svg">
<path d="M15.8954 0.881836H1.2189C0.546406 0.881836 0 1.43588 0 2.11603V16.7658C0 17.446 0.546406 18 1.2189 18H15.8954C16.5679 18 17.1182 17.446 17.1182 16.7658V2.11603C17.1182 1.43588 16.5679 0.881836 15.8954 0.881836ZM5.17366 15.5545H2.6365V7.38521H5.17748V15.5545H5.17366ZM3.90508 6.26947C3.0912 6.26947 2.43399 5.60844 2.43399 4.79838C2.43399 3.98832 3.0912 3.32729 3.90508 3.32729C4.71514 3.32729 5.37617 3.98832 5.37617 4.79838C5.37617 5.61226 4.71896 6.26947 3.90508 6.26947ZM14.6842 15.5545H12.147V11.5807C12.147 10.6331 12.1279 9.41417 10.8288 9.41417C9.50669 9.41417 9.30418 10.4458 9.30418 11.5119V15.5545H6.76702V7.38521H9.20101V8.50095H9.2354C9.57547 7.85902 10.4046 7.1827 11.6388 7.1827C14.2065 7.1827 14.6842 8.87541 14.6842 11.0763V15.5545Z" fill="#626262"/>
</svg>
